<svg xmlns="http://www.w3.org/2000/svg" width="156" height="28" viewBox="0 0 156 28" fill="none"><path d="M11.0231 9.11148L14.919 0H0.581055L13.1296 20.6098L16.5046 9.11148H11.0231Z" fill="url(#paint0_linear_922_3276)"></path><path d="M22.2354 0L19.5173 6.31148H24.0475L13.1297 20.6098L9.0752 28H17.4107L34.3309 0H22.2354Z" fill="url(#paint1_linear_922_3276)"></path><path d="M35.8711 28H61.4214V21.941H41.9189V17.0295H57.6159V10.9705H41.9189V6.05902H61.4214V0H35.8711V28Z" fill="#231F20"></path><path d="M86.8357 18.659L71.3652 0H65.2041V28H71.1614V9.24918L86.7224 28H92.8609V0H86.8357V18.659Z" fill="#231F20"></path><path d="M143.916 14L155.536 0H147.653L140.043 9.22623L132.364 0H131.752H126.18H97.2324V28H122.76V21.941H103.257V17.0295H118.977V10.9705H103.257V6.05902H129.487L136.056 14L124.481 28H132.364L139.975 18.8197L147.653 28H155.581L143.916 14Z" fill="#231F20"></path><defs><linearGradient id="paint0_linear_922_3276" x1="1.46136" y1="28.8782" x2="18.2125" y2="-2.5223" gradientUnits="userSpaceOnUse"><stop stop-color="#FFDA00"></stop><stop offset="1" stop-color="#F89A1C"></stop></linearGradient><linearGradient id="paint1_linear_922_3276" x1="10.4714" y1="39.2333" x2="31.1871" y2="-6.10116" gradientUnits="userSpaceOnUse"><stop stop-color="#FFDA00"></stop><stop offset="1" stop-color="#F89A1C"></stop></linearGradient></defs></svg>